<svg viewBox="0 0 1440 103" fill="none" xmlns="http://www.w3.org/2000/svg">
<path fill-rule="evenodd" clip-rule="evenodd" d="M0 0L59.625 3.86994C120.375 7.73988 239.625 15.4798 360 28.578C480.375 41.974 599.625 61.026 720 64.896C840.375 68.7659 959.625 57.1561 1080 53.5838C1200.38 49.7139 1319.62 53.5838 1380.38 55.3699L1440 57.1561V103H1380.38C1319.62 103 1200.38 103 1080 103C959.625 103 840.375 103 720 103C599.625 103 480.375 103 360 103C239.625 103 120.375 103 59.625 103H0V0Z" fill="#00EEB0"/>
<path fill-rule="evenodd" clip-rule="evenodd" d="M0 41.2L48 49.44C96 57.68 192 74.16 288 70.04C384 65.92 480 41.2 576 24.72C672 8.24 768 0 864 0C960 0 1056 8.24 1152 22.66C1248 37.08 1344 57.68 1392 67.98L1440 78.28V103H1392C1344 103 1248 103 1152 103C1056 103 960 103 864 103C768 103 672 103 576 103C480 103 384 103 288 103C192 103 96 103 48 103H0V41.2Z" fill="#224957" fill-opacity="0.8"/>
</svg>
